<?xml version="1.0" standalone="no"?><!DOCTYPE svg PUBLIC "-//W3C//DTD SVG 1.1//EN" "http://www.w3.org/Graphics/SVG/1.1/DTD/svg11.dtd"><svg t="1504684977037" fill="#ffd602" class="icon" style="" viewBox="0 0 1024 1024" version="1.1" xmlns="http://www.w3.org/2000/svg" p-id="2658" xmlns:xlink="http://www.w3.org/1999/xlink" width="200" height="200"><defs><style type="text/css"></style></defs><path d="M177.378 0.365L839.864 0c47.26 1.304 85.703 37.869 90.002 84.306l0.377 556.043a46.665 46.665 0 0 1 1.166 10.397 46.387 46.387 0 0 1-14.734 33.956 46.56 46.56 0 0 1-9.57 7.39l-310.053 310.853a46.467 46.467 0 0 1-38.93 21.05 46.368 46.368 0 0 1-17.31-3.334 46.35 46.35 0 0 1-16.562-10.674 46.471 46.471 0 0 1-12.658-42.373l-0.285-223.393h0.319v-46.513c0-51.39 41.648-93.038 93.026-93.038h49.432v-0.139l183.104-0.235-0.302-434.966c-2.949-63.34-24.02-75.218-92.657-75.218l42.512-1.048-537.669 0.31 29.947 0.738c-74.64 0-93.035 14.038-93.035 93.035l0.617-93.735h-1.007l0.386 837.226h0.625l-0.62-94.506c0 78.996 18.395 93.038 93.034 93.038l-56.634 1.401 147.466-0.264c25.69 0 46.517 20.828 46.517 46.513 0 25.69-20.828 46.517-46.521 46.517l-137.32 0.252v-0.277h-46.514c-51.378 0-93.03-41.648-93.03-93.018v-49.428h-0.054l-0.344-738.454h0.398V92.988c0-48.45 37.068-88.257 84.395-92.619zM277.91 419.04l466.976-0.428c25.69 0 46.513 20.828 46.513 46.513 0 25.694-20.824 46.522-46.513 46.522l-466.976 0.423c-25.693 0-46.517-20.815-46.517-46.513 0-25.689 20.824-46.517 46.522-46.517z m0-186.069l466.976-0.428c25.69 0 46.513 20.833 46.513 46.522 0 25.685-20.824 46.513-46.513 46.513l-466.976 0.44c-25.693 0-46.517-20.832-46.517-46.513 0-25.702 20.824-46.534 46.522-46.534z m326.48 549.91c1.133-68.1 18.258-85.207 94.42-85.207l-93.866 0.629-0.557 83.031-0.11-83.71 166.118-0.215-165.9 166.34-0.104-80.863z m232.465-658.924l-0.02-30.924h-0.177l0.197 30.924z" p-id="2659"></path></svg>
