<?xml version="1.0" standalone="no"?><!DOCTYPE svg PUBLIC "-//W3C//DTD SVG 1.1//EN" "http://www.w3.org/Graphics/SVG/1.1/DTD/svg11.dtd"><svg t="1504685019163" fill="#ffd602" class="icon" style="" viewBox="0 0 1024 1024" version="1.1" xmlns="http://www.w3.org/2000/svg" p-id="3854" xmlns:xlink="http://www.w3.org/1999/xlink" width="200" height="200"><defs><style type="text/css"></style></defs><path d="M547.546587 478.230895l0-88.083128 45.210691 0 184.737468 0 81.745792-80.485079-81.745792-82.311681L606.571912 227.351008l-59.024302 0 0-76.290547c0-16.180518-13.238512-29.418007-29.418007-29.418007l-12.257162 0c-16.180518 0-29.418007 13.238512-29.418007 29.418007l0 76.290547-17.206894 0L245.115604 227.351008l62.515822 81.398892-62.515822 81.398892 189.549054 0 41.787732 0 0 88.083128L303.036781 478.231919l-75.812663 71.070662 75.812663 69.493747 173.416632 0 0 268.471544c0 0.727571 0.035816 1.446955 0.089028 2.162246l70.917166 0c0.052189-0.715291 0.089028-1.434675 0.089028-2.162246L547.548634 618.795305l249.228271 0-57.978483-70.282716 57.978483-70.282716L547.546587 478.229872z" p-id="3855"></path></svg>
