<?xml version="1.0" standalone="no"?><!DOCTYPE svg PUBLIC "-//W3C//DTD SVG 1.1//EN" "http://www.w3.org/Graphics/SVG/1.1/DTD/svg11.dtd"><svg t="1504685027914" fill="#ffd602" class="icon" style="" viewBox="0 0 1024 1024" version="1.1" xmlns="http://www.w3.org/2000/svg" p-id="4070" xmlns:xlink="http://www.w3.org/1999/xlink" width="200" height="200"><defs><style type="text/css"></style></defs><path d="M199.49066 771.076188m-79.341283 0a77.531 77.531 0 1 0 158.682566 0 77.531 77.531 0 1 0-158.682566 0Z" p-id="4071"></path><path d="M837.463917 771.076188m-79.342306 0a77.532 77.532 0 1 0 158.684613 0 77.532 77.532 0 1 0-158.684613 0Z" p-id="4072"></path><path d="M897.376916 273.975128l-187.831643 0 0 314.129302-709.219848 0 0 103.630475 120.517783 0c20.189655-20.014663 47.970515-32.384907 78.646429-32.384907 30.675914 0 58.45575 12.370245 78.646429 32.384907L758.817488 691.734905c20.189655-20.014663 47.971538-32.384907 78.646429-32.384907 30.675914 0 58.456773 12.370245 78.647452 32.384907l107.564229 0 0-291.460071L897.376916 273.975128zM952.429007 439.135494 758.121611 439.135494l0-103.630475 126.296635 0 68.009738 68.007691L952.427984 439.135494z" p-id="4073"></path><path d="M84.52557 529.811392l495.482121 0c37.559984 0 68.006668-30.447707 68.006668-68.007691l0-220.214504c0-37.559984-30.446684-68.007691-68.006668-68.007691l-495.482121 0c-37.558961 0-68.007691 30.447707-68.007691 68.007691l0 220.214504C16.517879 499.363685 46.966609 529.811392 84.52557 529.811392z" p-id="4074"></path></svg>
