<?xml version="1.0" standalone="no"?><!DOCTYPE svg PUBLIC "-//W3C//DTD SVG 1.1//EN" "http://www.w3.org/Graphics/SVG/1.1/DTD/svg11.dtd"><svg t="1504684968414" fill="#ffd602" class="icon" style="" viewBox="0 0 1024 1024" version="1.1" xmlns="http://www.w3.org/2000/svg" p-id="2441" xmlns:xlink="http://www.w3.org/1999/xlink" width="200" height="200"><defs><style type="text/css"></style></defs><path d="M512 2.275c-281.076 0-509.725 228.647-509.725 509.725s228.647 509.725 509.725 509.725 509.725-228.647 509.725-509.725-228.647-509.725-509.725-509.725zM512 876.49c-30.146 0-54.613-24.467-54.613-54.613s24.467-54.613 54.613-54.613 54.613 24.467 54.613 54.613-24.467 54.613-54.613 54.613zM612.78 504.245c-31.676 31.639-64.371 64.335-64.371 93.716v61.567c0 20.098-16.311 36.409-36.409 36.409s-36.409-16.311-36.409-36.409v-61.567c0-59.565 45.511-105.076 85.707-145.235 29.455-29.455 59.929-59.892 59.929-84.177 0-60.693-49.006-110.064-109.227-110.064-61.239 0-109.227 47.259-109.227 107.588 0 20.098-16.311 36.409-36.409 36.409s-36.409-16.311-36.409-36.409c0-99.469 81.665-180.406 182.045-180.406s182.045 82.029 182.045 182.882c0 54.467-41.324 95.756-81.265 135.696z" p-id="2442"></path></svg>
