<?xml version="1.0" standalone="no"?><!DOCTYPE svg PUBLIC "-//W3C//DTD SVG 1.1//EN" "http://www.w3.org/Graphics/SVG/1.1/DTD/svg11.dtd"><svg t="1504685016186" fill="#707378" class="icon" style="" viewBox="0 0 1029 1024" version="1.1" xmlns="http://www.w3.org/2000/svg" p-id="3745" xmlns:xlink="http://www.w3.org/1999/xlink" width="200.9765625" height="200"><defs><style type="text/css"></style></defs><path d="M942.616825 1023.999966c-21.994244 0-43.986784-8.393708-60.775906-25.18283L623.875998 740.939222c-33.578244-33.494648-33.578244-87.973567 0-121.551811 33.57995-33.57995 87.973567-33.57995 121.553517 0l257.961509 257.877913c33.578244 33.492942 33.578244 87.973567 0 121.551811C986.603608 1015.606258 964.609364 1023.999966 942.616825 1023.999966z" p-id="3746"></path><path d="M429.797091 859.971215c-236.975533 0-429.797091-192.819852-429.797091-429.838036 0-236.975533 192.819852-429.756146 429.797091-429.756146S859.59418 193.157648 859.59418 430.13318C859.59418 667.151364 666.772623 859.971215 429.797091 859.971215zM429.797091 172.296212c-142.203403 0-257.877913 115.676215-257.877913 257.836968 0 142.159046 115.676215 257.920564 257.877913 257.920564s257.877913-115.761517 257.877913-257.920564C687.675003 287.972427 571.998788 172.296212 429.797091 172.296212z" p-id="3747"></path></svg>
