<?xml version="1.0" standalone="no"?><!DOCTYPE svg PUBLIC "-//W3C//DTD SVG 1.1//EN" "http://www.w3.org/Graphics/SVG/1.1/DTD/svg11.dtd"><svg t="1504684983831" class="icon" style="" viewBox="0 0 1024 1024" version="1.1" xmlns="http://www.w3.org/2000/svg" p-id="2880" xmlns:xlink="http://www.w3.org/1999/xlink" width="200" height="200"><defs><style type="text/css"></style></defs><path d="M907.292444 334.364444v139.008a88.689778 88.689778 0 0 1-47.815111 78.449778v271.672889h-71.452444l-26.254222-171.918222-26.140445 171.918222h-65.621333v-245.276444a141.681778 141.681778 0 0 0 42.723555-101.290667v-151.267556a140.572444 140.572444 0 0 0-23.011555-77.255111c6.570667-1.564444 13.397333-2.417778 20.394667-2.417777h108.8a88.604444 88.604444 0 0 1 88.376888 88.376888zM761.998222 42.922667a93.041778 93.041778 0 1 1 0.056889 186.083555 93.041778 93.041778 0 0 1-0.056889-186.083555zM513.536 8.476444a101.262222 101.262222 0 1 1 0 202.581334 101.262222 101.262222 0 0 1 0-202.581334zM355.384889 325.632a96.483556 96.483556 0 0 1 96.199111-96.142222h118.328889a96.426667 96.426667 0 0 1 96.170667 96.142222v151.267556a96.398222 96.398222 0 0 1-52.508445 85.589333v295.452444h-71.338667l-28.586666-187.136-28.529778 187.136h-77.710222V562.289778a96.483556 96.483556 0 0 1-52.024889-85.361778v-151.296zM260.608 42.922667a93.070222 93.070222 0 1 1 0.056889 186.140444 93.070222 93.070222 0 0 1-0.056889-186.140444zM115.342222 334.364444A88.604444 88.604444 0 0 1 203.662222 245.987556h108.771556c6.968889 0 13.824 0.853333 20.366222 2.417777a140.743111 140.743111 0 0 0-22.954667 77.255111v151.267556c0 38.741333 15.872 75.064889 42.695111 101.290667v245.276444H287.004444l-26.254222-171.918222-26.197333 171.889778h-71.395556v-271.672889a88.746667 88.746667 0 0 1-47.815111-78.449778v-138.979556z" fill="#272536" p-id="2881"></path><path d="M512 1015.523556c-282.766222 0-512-70.712889-512-157.923556 0-36.693333 40.561778-70.456889 108.629333-97.251556-16.327111 11.349333-25.258667 23.552-25.258666 36.295112 0 59.221333 191.886222 107.178667 428.572444 107.178666 236.714667 0 428.600889-47.957333 428.600889-107.178666 0-12.743111-8.903111-24.945778-25.287111-36.295112C983.438222 787.171556 1024 820.906667 1024 857.6c0 87.210667-229.233778 157.923556-512 157.923556z" fill="#272536" p-id="2882"></path></svg>