<?xml version="1.0" standalone="no"?><!DOCTYPE svg PUBLIC "-//W3C//DTD SVG 1.1//EN" "http://www.w3.org/Graphics/SVG/1.1/DTD/svg11.dtd"><svg t="1504684924399" class="icon" style="" viewBox="0 0 1024 1024" version="1.1" xmlns="http://www.w3.org/2000/svg" p-id="1356" xmlns:xlink="http://www.w3.org/1999/xlink" width="200" height="200"><defs><style type="text/css"></style></defs><path d="M312.064 756.608c-130.944 0-151.68-82.688-144.64-117.248 6.912-34.432 44.8-79.232 117.632-79.232 83.712 0 158.592 21.376 248.576 65.152-63.36 82.432-140.928 131.328-221.568 131.328zM960 677.376V236.288C960 141.184 882.816 64 787.712 64H236.288C141.184 64 64 141.184 64 236.288v551.424C64 882.816 141.056 960 236.288 960h551.424c84.736 0 155.264-61.312 169.6-141.824-45.696-19.712-243.712-105.344-346.88-154.496-78.464 95.104-160.768 152.192-284.672 152.192S119.168 739.456 129.024 646.016c6.528-61.312 48.64-161.536 231.296-144.384 96.256 8.96 140.288 27.008 218.88 52.864 20.352-37.248 37.12-78.208 50.048-121.856h-348.16v-34.56h172.288v-61.952H243.2v-38.016h210.048v-89.344s1.92-13.952 17.408-13.952H556.8V298.24h224v38.016H556.8v61.952h182.784c-16.768 68.352-42.24 131.2-74.24 186.112 53.12 19.2 294.656 93.056 294.656 93.056z" p-id="1357"></path></svg>