<?xml version="1.0" standalone="no"?><!DOCTYPE svg PUBLIC "-//W3C//DTD SVG 1.1//EN" "http://www.w3.org/Graphics/SVG/1.1/DTD/svg11.dtd"><svg t="1504684942150" class="icon" style="" viewBox="0 0 1024 1024" version="1.1" xmlns="http://www.w3.org/2000/svg" p-id="1684" xmlns:xlink="http://www.w3.org/1999/xlink" width="200" height="200"><defs><style type="text/css"></style></defs><path d="M648.608 816.569c-19.736-13.599 5.235-158.271-5.29-159.895 1.608-34.577 27.083-36.302 35.756-62.839 7.223-23.274 0.651-53.465 12.32-75.13 8.004-15.04 26.658-15.233 35.846-28.047 8.277-11.728 13.824-32.072 16.432-46.409 4.847-26.129 8.802-61.93-3.518-87.739-7.382-14.905-11.836-16.314-13.756-34.426-2.341-21.754 6.461-108.346 6.91-123.811 0.995-40.014-0.095-43.303-9.694-82.344l0.074-0.005c0 0-19.921-35.261-38.374-45.887l-36.931-6.374L625.92 42.574c-91.748-56.219-192.746-16.825-245.361 4.48-75.772 24.682-123.798 114.034-90.307 272.532 5.894 27.111-14.719 39.267-13.463 54.067 2.961 32.283 3.597 110.033 34.131 129.127 2.723 1.734 24.392 7.262 24.389 5.742 2.926 31.364 6.015 62.833 9.005 94.234 7.648 21.116 31.531 23.269 36.723 52.833 0 0 7.25 147.337-12.434 160.981-16.494 4.304-343.408 82.831-343.408 193.738L471.19 1010.308l0 0.029 79.909 0 0-0.029 447.706 0C961.158 866.395 665.041 820.967 648.608 816.569z" p-id="1685"></path></svg>