<?xml version="1.0" standalone="no"?><!DOCTYPE svg PUBLIC "-//W3C//DTD SVG 1.1//EN" "http://www.w3.org/Graphics/SVG/1.1/DTD/svg11.dtd"><svg t="1504685012030" fill="#707378"	 class="icon" style="" viewBox="0 0 1024 1024" version="1.1" xmlns="http://www.w3.org/2000/svg" p-id="3637" xmlns:xlink="http://www.w3.org/1999/xlink" width="200" height="200"><defs><style type="text/css"></style></defs><path d="M757.76 81.92 266.24 81.92c-67.864746 0-122.88 55.015254-122.88 122.88L102.4 819.2c0 67.864746 55.015254 122.88 122.88 122.88l573.44 0c67.864746 0 122.88-55.015254 122.88-122.88L880.64 204.8C880.64 136.935254 825.624746 81.92 757.76 81.92L757.76 81.92zM512 500.512484c-30.187982 0-59.479687-6.048207-87.061369-17.97637-26.599683-11.503482-50.477133-27.959941-70.968677-48.912027-20.460596-20.920401-36.52283-45.277797-47.740653-72.395744-11.606152-28.05647-17.490775-57.84335-17.490775-88.533385l41.018949 0c0 25.282656 4.836552 49.794057 14.375791 72.853584 9.205684 22.254131 22.381855 42.237237 39.162044 59.394456 16.749241 17.12578 36.238154 30.564767 57.925634 39.94386 22.411084 9.692016 46.224426 14.60643 70.779302 14.60643 24.554631 0 48.368219-4.914168 70.779057-14.60643 21.687234-9.379093 41.176393-22.81808 57.925634-39.94386 16.779943-17.157219 29.956114-37.140325 39.162044-59.394456 9.538994-23.059527 14.375545-47.571174 14.375545-72.853584l41.018949 0c0 30.690034-5.884868 60.476914-17.490775 88.533385-11.218069 27.117947-27.280058 51.475343-47.740653 72.395744-20.49179 20.952086-44.368994 37.408299-70.968923 48.912027C571.479687 494.464276 542.187982 500.512484 512 500.512484z" p-id="3638"></path></svg>
