<?xml version="1.0" standalone="no"?><!DOCTYPE svg PUBLIC "-//W3C//DTD SVG 1.1//EN" "http://www.w3.org/Graphics/SVG/1.1/DTD/svg11.dtd"><svg t="1504685008850" fill="#707378" class="icon" style="" viewBox="0 0 1024 1024" version="1.1" xmlns="http://www.w3.org/2000/svg" p-id="3529" xmlns:xlink="http://www.w3.org/1999/xlink" width="200" height="200"><defs><style type="text/css"></style></defs><path d="M1024 844.8c0 28.16-23.04 51.2-51.2 51.2L51.2 896c-28.16 0-51.2-23.04-51.2-51.2l0-51.2c0-28.16 23.04-51.2 51.2-51.2l921.6 0c28.16 0 51.2 23.04 51.2 51.2L1024 844.8zM1024 486.4c0-28.16-23.04-51.2-51.2-51.2L51.2 435.2c-28.16 0-51.2 23.04-51.2 51.2l0 51.2c0 28.16 23.04 51.2 51.2 51.2l921.6 0c28.16 0 51.2-23.04 51.2-51.2L1024 486.4zM1024 179.2c0-28.16-23.04-51.2-51.2-51.2L51.2 128C23.04 128 0 151.04 0 179.2l0 51.2c0 28.16 23.04 51.2 51.2 51.2l921.6 0c28.16 0 51.2-23.04 51.2-51.2L1024 179.2z" p-id="3530"></path></svg>
