<?xml version="1.0" standalone="no"?><!DOCTYPE svg PUBLIC "-//W3C//DTD SVG 1.1//EN" "http://www.w3.org/Graphics/SVG/1.1/DTD/svg11.dtd"><svg t="1504685022420" fill="#ffffff" class="icon" style="" viewBox="0 0 1024 1024" version="1.1" xmlns="http://www.w3.org/2000/svg" p-id="3962" xmlns:xlink="http://www.w3.org/1999/xlink" width="200" height="200"><defs><style type="text/css"></style></defs><path d="M210.479173 168.153768c45.845996 0 82.960786 33.431414 82.960786 74.43427 0 40.934295-37.115813 74.330916-82.960786 74.330916-45.827576 0-82.943389-33.396621-82.943389-74.330916C127.535784 201.586205 164.651597 168.153768 210.479173 168.153768zM279.731187 615.003955c-21.920117 67.831898-16.457485 42.662659-103.376581 231.498468L50.419339 767.989255c0 0 140.421783-127.781268 169.326251-186.139397 30.458934-61.572334-33.727508-94.417393-33.727508-94.417393l-96.444421-60.157101 52.08535-80.277348c72.762099 54.002938 78.223707 58.533115 127.318834 107.729583C306.905173 492.790496 302.169118 545.686217 279.731187 615.003955zM964.122878 703.096293c-24.549098 230.321666-324.201803 144.753825-324.201803 144.753825l16.249745-65.929572 58.11901 14.936177c128.373906 8.15882 104.588225-104.029308 104.588225-104.029308L818.878055 366.774431c0-123.769908-105.141857-136.596028-315.973061-61.194734l54.729681 6.257517c-4.252011 14.486946-14.623645 54.797024-34.867517 54.797024l260.706122 0 0 70.804602L641.858272 437.43884l0 70.804602 141.616031 0 0 35.402301L641.858272 543.645744l0 142.16179c0-7.951089 47.885529-18.599613 67.038512-32.843012l-12.963774-52.203966 75.267255-23.199375 62.300411 152.258753-91.757486 38.168298-16.250768-60.675918c-40.969742 31.426757-126.332326 76.821643-275.122027 72.808236C291.261251 784.203542 332.075444 590.941933 332.075444 590.941933l4.062692-11.892865 111.81204 0c-0.725554 35.402301-10.38903 71.910796 2.870491 92.829222 10.751295 17.181311 32.066614 24.994254 49.906641 25.823132 2.005762 0.277316-0.485067 5.187139-0.485067 5.255701L500.242242 543.646767 323.224506 543.646767l0-35.402301 177.017736 0 0-70.804602-28.281249 0c-36.509991 35.402301-69.787226 70.90898-69.787226 70.90898l-48.955951-42.766013c34.764159-36.577057 69.579486-94.418416 90.981789-133.173069-17.477763 7.121188-35.421149 14.69263-53.900769 22.852474-18.255507 22.853497-38.912813 46.431495-62.026153 69.596078 0.813562 1.242294-80.020707-45.291532-80.020707-45.291532 83.548188-71.390957 130.396042-224.202295 130.396042-224.202295l116.341379 32.498158c0 0-9.766835 22.644743-29.474473 57.252958 465.418728-131.756813 492.384975 80.796164 492.384975 80.796164S988.566571 472.739834 964.122878 703.096293z" p-id="3963"></path></svg>
