<?xml version="1.0" standalone="no"?><!DOCTYPE svg PUBLIC "-//W3C//DTD SVG 1.1//EN" "http://www.w3.org/Graphics/SVG/1.1/DTD/svg11.dtd"><svg t="1504684987308" fill="#ffd602" class="icon" style="" viewBox="0 0 1024 1024" version="1.1" xmlns="http://www.w3.org/2000/svg" p-id="2989" xmlns:xlink="http://www.w3.org/1999/xlink" width="200" height="200"><defs><style type="text/css"></style></defs><path d="M808.97318 1019.509732l-7.680936 0c-132.580574 0-401.153426-133.517923-532.192901-264.571724C138.009725 623.897509 4.490779 355.274516 4.490779 222.721571l0-7.706519 4.261047-6.393617C40.719912 160.745031 150.500201 4.490268 222.709803 4.490268c60.316737 0 183.773514 112.095008 220.12749 199.869097 22.078855 53.353139 7.16212 84.130096-9.318226 100.609419-26.614148 26.638707-53.253878 43.068911-74.66349 56.326866-34.544771 21.310352-46.439682 29.959336-46.439682 54.295604 0 53.749158 61.555961 115.328655 121.103172 174.902472 59.597353 59.573817 121.154337 121.126708 174.928055 121.126708 24.335245 0 32.959669-11.943007 54.271044-46.438659 13.231349-21.409612 29.686113-48.073902 56.347333-74.68805 13.332656-13.331633 31.126928-20.367887 51.496861-20.367887 92.678796 0 248.946862 157.555385 248.946862 231.16487 0 72.259744-156.268066 182.042079-204.143447 213.956953L808.97318 1019.509732z" p-id="2990"></path></svg>
